<svg id="cart" xmlns="http://www.w3.org/2000/svg" width="29.09" height="29.09" viewBox="0 0 29.09 29.09">
  <path id="Path_12574" data-name="Path 12574" d="M0,3.22a.97.97,0,0,1,.97-.97H3.879a.97.97,0,0,1,.94.735l.786,3.143H28.121a.97.97,0,0,1,.952,1.148L26.164,22.792a.97.97,0,0,1-.952.791H7.757a.97.97,0,0,1-.952-.791L3.9,7.306,3.123,4.189H.97A.97.97,0,0,1,0,3.22ZM6.015,8.068,8.562,21.643H24.406L26.953,8.068ZM9.7,23.583a3.879,3.879,0,1,0,3.879,3.879A3.879,3.879,0,0,0,9.7,23.583Zm13.575,0a3.879,3.879,0,1,0,3.879,3.879A3.879,3.879,0,0,0,23.272,23.583ZM9.7,25.522a1.939,1.939,0,1,0,1.939,1.939A1.939,1.939,0,0,0,9.7,25.522Zm13.575,0a1.939,1.939,0,1,0,1.939,1.939A1.939,1.939,0,0,0,23.272,25.522Z" transform="translate(0 -2.25)" fill="#de8500" fill-rule="evenodd"/>
</svg>
