<svg xmlns="http://www.w3.org/2000/svg" width="151.244" height="58" viewBox="0 0 151.244 58">
  <g id="Group_2" data-name="Group 2" transform="translate(-144.581 -960.234)">
    <path id="Path_12552" data-name="Path 12552" d="M183.318,1009.548a15.1,15.1,0,0,1-4.431,6.132,61.624,61.624,0,0,1-15.608,10.165,22.017,22.017,0,0,1-6.132,2.13,8.741,8.741,0,0,1-6.248-1.2c-5.7-3.945-5.087-13.661-5.209-19.662-.1-4.682-.057-9.617,2.147-13.877,2.275-4.4,6.915-5.764,11.517-4.367a19.687,19.687,0,0,1,5.25,2.52,12.6,12.6,0,0,1,2.619,1.952l-4.852,3.057c-.488-.313-.935-.761-1.36-1.066-1.4-1.005-3.4-2.035-5.2-1.719a4.385,4.385,0,0,0-3.335,3.217,41.964,41.964,0,0,0-1.39,13.169c.068,1.828.227,3.652.453,5.467a16.5,16.5,0,0,0,.784,3.892,4.281,4.281,0,0,0,3.8,3.031,9.1,9.1,0,0,0,4.467-1.041c3.549-1.747,7-3.713,10.393-5.739,2.094-1.25,4.3-2.553,5.736-4.58.926-1.308,1.8-3.572.582-4.968-.081-.094-.175-.188-.269-.282l4.986-3.142a6.63,6.63,0,0,1,1.423,2.583A7.484,7.484,0,0,1,183.318,1009.548Z" transform="translate(-0.38 -9.863)" fill="#fff" opacity="0.19"/>
    <path id="Path_12553" data-name="Path 12553" d="M179.923,985.538c-2.874,3.353-6.911,5.394-10.648,7.6a63.742,63.742,0,0,1-13.056,6.065c-.085.026-.528.143-.994.273v-5.465a62.973,62.973,0,0,0,16.172-7.959c1.705-1.172,3.759-2.453,4.673-4.391,1.468-3.1-1.732-5.227-3.863-6.83-2.413-1.813-5-3.38-7.573-4.946-2.981-1.808-6.186-3.8-9.735-4.131a4.162,4.162,0,0,0-2.256.3c-2.363,1.186-2.224,4.4-2.422,6.6a3.727,3.727,0,0,1-.206.972l-5.434,1.776c.054-.635.1-1.271.143-1.915.3-4.521.8-11.2,5.989-12.877,3.849-1.24,7.824.747,11.212,2.417a93.354,93.354,0,0,1,11.051,6.181c3.245,2.189,6.929,4.714,8.581,8.4C182.77,980.338,181.767,983.381,179.923,985.538Z" transform="translate(0 0)" fill="#fff" opacity="0.31"/>
    <path id="Path_12554" data-name="Path 12554" d="M216.055,1000.107q-2.241-2.937-2.241-9.03,0-11.966,8.79-11.967a7.091,7.091,0,0,1,6.223,2.916q2.044,2.916,2.045,9.051v1.306H219.254a11.4,11.4,0,0,0,.848,4.808,2.774,2.774,0,0,0,2.677,1.588,2.45,2.45,0,0,0,2.132-1.153,5.639,5.639,0,0,0,.783-3.2h5.178q0,4.264-2.219,6.441a8.03,8.03,0,0,1-5.875,2.175Q218.3,1003.044,216.055,1000.107Zm9.334-11.51q0-5.222-2.784-5.222a2.593,2.593,0,0,0-2.394,1.327,8.68,8.68,0,0,0-.914,3.894Z" transform="translate(-24.297 -6.625)" fill="#fff"/>
    <path id="Path_12555" data-name="Path 12555" d="M246.628,1000.107q-2.242-2.937-2.241-9.03,0-11.966,8.79-11.967a7.092,7.092,0,0,1,6.223,2.916q2.045,2.916,2.045,9.051v1.306H249.826a11.4,11.4,0,0,0,.849,4.808,2.773,2.773,0,0,0,2.676,1.588,2.451,2.451,0,0,0,2.133-1.153,5.639,5.639,0,0,0,.783-3.2h5.179q0,4.264-2.22,6.441a8.029,8.029,0,0,1-5.875,2.175Q248.869,1003.044,246.628,1000.107Zm9.334-11.51q0-5.222-2.785-5.222a2.592,2.592,0,0,0-2.393,1.327,8.679,8.679,0,0,0-.915,3.894Z" transform="translate(-35.026 -6.625)" fill="#fff"/>
    <path id="Path_12556" data-name="Path 12556" d="M278.4,995.428q-3.241-3.852-3.241-11.6t3.241-11.6q3.242-3.851,9.161-3.852t9.159,3.852q3.242,3.851,3.242,11.6t-3.242,11.6q-3.241,3.851-9.159,3.851T278.4,995.428Zm14.121-3.437a12.515,12.515,0,0,0,1.7-7.071v-2.176a12.517,12.517,0,0,0-1.7-7.071,6.168,6.168,0,0,0-9.921,0,12.521,12.521,0,0,0-1.7,7.071v2.176a12.52,12.52,0,0,0,1.7,7.071,6.168,6.168,0,0,0,9.921,0Z" transform="translate(-45.826 -2.859)" fill="#fff"/>
    <path id="Path_12557" data-name="Path 12557" d="M319.341,979.633h4.351l.522,2.829h.261a8.587,8.587,0,0,1,2.437-2.415,6,6,0,0,1,3.351-.936,5.781,5.781,0,0,1,4.461,1.763q1.631,1.762,1.631,5.592v16.057h-5.222V987.9a4.99,4.99,0,0,0-.761-3.09,2.7,2.7,0,0,0-2.241-.957,3.1,3.1,0,0,0-2.546,1.327,5.153,5.153,0,0,0-1.023,3.242v14.1h-5.222Z" transform="translate(-61.331 -6.625)" fill="#fff"/>
    <path id="Path_12558" data-name="Path 12558" d="M353.561,1000.107q-2.241-2.937-2.241-9.03,0-11.966,8.79-11.967a7.091,7.091,0,0,1,6.222,2.916q2.045,2.916,2.046,9.051v1.306H356.76a11.4,11.4,0,0,0,.848,4.808,2.774,2.774,0,0,0,2.677,1.588,2.45,2.45,0,0,0,2.132-1.153,5.639,5.639,0,0,0,.783-3.2h5.179q0,4.264-2.22,6.441a8.03,8.03,0,0,1-5.875,2.175Q355.8,1003.044,353.561,1000.107ZM362.9,988.6q0-5.222-2.784-5.222a2.593,2.593,0,0,0-2.394,1.327,8.68,8.68,0,0,0-.914,3.894Z" transform="translate(-72.554 -6.625)" fill="#fff"/>
    <path id="Path_12559" data-name="Path 12559" d="M180.923,985.538c-2.873,3.353-6.911,5.394-10.648,7.6a63.726,63.726,0,0,1-13.056,6.065c-.085.026-.528.143-.994.273v-5.465a62.952,62.952,0,0,0,16.172-7.959c1.705-1.172,3.76-2.453,4.673-4.391,1.468-3.1-1.732-5.227-3.863-6.83-2.413-1.813-5-3.38-7.573-4.946-2.981-1.808-6.185-3.8-9.735-4.131a4.163,4.163,0,0,0-2.256.3c-2.363,1.186-2.224,4.4-2.421,6.6a3.752,3.752,0,0,1-.206.972l-5.434,1.776c.054-.635.1-1.271.143-1.915.3-4.521.8-11.2,5.989-12.877,3.85-1.24,7.824.747,11.212,2.417a93.3,93.3,0,0,1,11.051,6.181c3.245,2.189,6.929,4.714,8.581,8.4C183.77,980.338,182.767,983.381,180.923,985.538Z" transform="translate(-0.351 0)" fill="#fff"/>
    <path id="Path_12560" data-name="Path 12560" d="M182.575,1007.9a15.086,15.086,0,0,1-4.431,6.132,61.578,61.578,0,0,1-15.608,10.165,22.029,22.029,0,0,1-6.132,2.131,8.748,8.748,0,0,1-6.248-1.2c-5.7-3.946-5.087-13.661-5.209-19.662-.1-4.682-.057-9.618,2.147-13.877,2.275-4.4,6.915-5.765,11.517-4.367a19.691,19.691,0,0,1,5.25,2.52,12.613,12.613,0,0,1,2.618,1.952l-4.852,3.057c-.488-.313-.936-.761-1.361-1.065-1.4-1.005-3.4-2.035-5.2-1.719a4.386,4.386,0,0,0-3.336,3.217,42,42,0,0,0-1.39,13.169c.068,1.828.227,3.651.453,5.466a16.516,16.516,0,0,0,.784,3.892,4.279,4.279,0,0,0,3.8,3.031,9.1,9.1,0,0,0,4.467-1.041c3.55-1.747,7-3.713,10.393-5.74,2.094-1.25,4.3-2.552,5.736-4.579.925-1.309,1.8-3.573.581-4.968-.081-.094-.175-.188-.269-.282l4.987-3.142a6.652,6.652,0,0,1,1.423,2.583A7.486,7.486,0,0,1,182.575,1007.9Z" transform="translate(-0.119 -9.286)" fill="#fff"/>
    <g id="Group_10219" data-name="Group 10219" transform="translate(190.927 1001.664)">
      <path id="Path_12561" data-name="Path 12561" d="M217.412,1032.094h-1.425v-7.859h1.425Z" transform="translate(-215.987 -1024.125)" fill="#fff"/>
      <path id="Path_12562" data-name="Path 12562" d="M231.265,1031.425a.69.69,0,0,1-.058.285.721.721,0,0,1-.153.228.686.686,0,0,1-.227.151.725.725,0,0,1-.28.055.758.758,0,0,1-.265-.049.61.61,0,0,1-.238-.159l-5.207-5.436v5.535h-1.424v-7.25a.68.68,0,0,1,.123-.4.774.774,0,0,1,.315-.266.719.719,0,0,1,.416-.04.681.681,0,0,1,.368.2l5.205,5.431v-5.534h1.425Z" transform="translate(-218.593 -1024.065)" fill="#fff"/>
      <path id="Path_12563" data-name="Path 12563" d="M248.577,1031.425a.69.69,0,0,1-.058.285.743.743,0,0,1-.153.228.689.689,0,0,1-.228.151.723.723,0,0,1-.28.055.764.764,0,0,1-.265-.049.615.615,0,0,1-.238-.159l-5.206-5.436v5.535h-1.425v-7.25a.681.681,0,0,1,.123-.4.776.776,0,0,1,.315-.266.721.721,0,0,1,.417-.04.679.679,0,0,1,.367.2l5.206,5.431v-5.534h1.425Z" transform="translate(-224.668 -1024.065)" fill="#fff"/>
      <path id="Path_12564" data-name="Path 12564" d="M266.148,1028.855a3.445,3.445,0,0,1-.247,1.321,3.068,3.068,0,0,1-1.723,1.723,3.435,3.435,0,0,1-1.307.244h-1.929a3.452,3.452,0,0,1-1.309-.244,3.085,3.085,0,0,1-1.042-.682,3.167,3.167,0,0,1-.687-1.042,3.41,3.41,0,0,1-.25-1.321v-1.5a3.419,3.419,0,0,1,.25-1.318,3.079,3.079,0,0,1,1.729-1.723,3.427,3.427,0,0,1,1.309-.247h1.929a3.41,3.41,0,0,1,1.307.247,3.168,3.168,0,0,1,1.038.682,3.1,3.1,0,0,1,.685,1.041,3.454,3.454,0,0,1,.247,1.318Zm-1.425-1.5a2.08,2.08,0,0,0-.134-.765,1.656,1.656,0,0,0-.965-.964,2.054,2.054,0,0,0-.754-.135h-1.929a2.081,2.081,0,0,0-.759.135,1.725,1.725,0,0,0-.589.378,1.674,1.674,0,0,0-.381.586,2.093,2.093,0,0,0-.134.765v1.5a2.1,2.1,0,0,0,.134.765,1.681,1.681,0,0,0,.381.586,1.725,1.725,0,0,0,.589.378,2.069,2.069,0,0,0,.759.134h1.918a2.058,2.058,0,0,0,.759-.134,1.725,1.725,0,0,0,.59-.378,1.689,1.689,0,0,0,.38-.586,2.084,2.084,0,0,0,.134-.765Z" transform="translate(-230.61 -1024.065)" fill="#fff"/>
      <path id="Path_12565" data-name="Path 12565" d="M282.723,1024.235l-3.72,7.579a.685.685,0,0,1-.261.282.7.7,0,0,1-.381.107.694.694,0,0,1-.375-.107.723.723,0,0,1-.265-.282L274,1024.235H275.6l2.761,5.661,2.773-5.661Z" transform="translate(-236.348 -1024.125)" fill="#fff"/>
      <path id="Path_12566" data-name="Path 12566" d="M298.66,1032.094h-1.425v-1.929h-5.008v1.929H290.8v-3.929a4.161,4.161,0,0,1,.3-1.584,3.7,3.7,0,0,1,.822-1.244,3.747,3.747,0,0,1,1.244-.811,4.156,4.156,0,0,1,1.567-.29h3.212a.708.708,0,0,1,.663.439.733.733,0,0,1,.055.28Zm-6.433-3.354h5.008v-3.08h-2.5c-.043,0-.136.006-.276.019a2.829,2.829,0,0,0-.488.1,3.066,3.066,0,0,0-.583.236,2.056,2.056,0,0,0-.564.439,2.221,2.221,0,0,0-.424.7,2.749,2.749,0,0,0-.167,1.017Z" transform="translate(-242.242 -1024.125)" fill="#fff"/>
      <path id="Path_12567" data-name="Path 12567" d="M314.895,1025.66h-3.14v6.434h-1.424v-6.434h-3.146v-1.425h7.71Z" transform="translate(-247.992 -1024.125)" fill="#fff"/>
      <path id="Path_12568" data-name="Path 12568" d="M324.781,1032.094h-1.425v-7.859h1.425Z" transform="translate(-253.668 -1024.125)" fill="#fff"/>
      <path id="Path_12569" data-name="Path 12569" d="M338.9,1028.855a3.445,3.445,0,0,1-.247,1.321,3.068,3.068,0,0,1-1.723,1.723,3.432,3.432,0,0,1-1.307.244H333.69a3.452,3.452,0,0,1-1.309-.244,3.084,3.084,0,0,1-1.042-.682,3.167,3.167,0,0,1-.687-1.042,3.41,3.41,0,0,1-.25-1.321v-1.5a3.419,3.419,0,0,1,.25-1.318,3.079,3.079,0,0,1,1.729-1.723,3.427,3.427,0,0,1,1.309-.247h1.929a3.407,3.407,0,0,1,1.307.247,3.167,3.167,0,0,1,1.038.682,3.088,3.088,0,0,1,.685,1.041,3.454,3.454,0,0,1,.247,1.318Zm-1.424-1.5a2.094,2.094,0,0,0-.134-.765,1.655,1.655,0,0,0-.965-.964,2.054,2.054,0,0,0-.754-.135H333.69a2.081,2.081,0,0,0-.759.135,1.725,1.725,0,0,0-.589.378,1.675,1.675,0,0,0-.381.586,2.093,2.093,0,0,0-.134.765v1.5a2.1,2.1,0,0,0,.134.765,1.682,1.682,0,0,0,.381.586,1.725,1.725,0,0,0,.589.378,2.068,2.068,0,0,0,.759.134h1.918a2.058,2.058,0,0,0,.759-.134,1.725,1.725,0,0,0,.59-.378,1.691,1.691,0,0,0,.381-.586,2.1,2.1,0,0,0,.134-.765Z" transform="translate(-256.14 -1024.065)" fill="#fff"/>
      <path id="Path_12570" data-name="Path 12570" d="M356.175,1031.425a.7.7,0,0,1-.058.285.733.733,0,0,1-.154.228.686.686,0,0,1-.227.151.725.725,0,0,1-.28.055.761.761,0,0,1-.266-.049.61.61,0,0,1-.238-.159l-5.207-5.436v5.535h-1.424v-7.25a.68.68,0,0,1,.123-.4.773.773,0,0,1,.315-.266.72.72,0,0,1,.416-.04.681.681,0,0,1,.368.2l5.205,5.431v-5.534h1.425Z" transform="translate(-262.429 -1024.065)" fill="#fff"/>
      <path id="Path_12571" data-name="Path 12571" d="M373.021,1029.78a2.506,2.506,0,0,1-.106.759,2.3,2.3,0,0,1-.282.594,1.907,1.907,0,0,1-.411.439,2.568,2.568,0,0,1-.487.3,2.5,2.5,0,0,1-.513.17,2.449,2.449,0,0,1-.491.054h-5.5v-1.425h5.5a.837.837,0,0,0,.639-.241.9.9,0,0,0,.228-.647,1.027,1.027,0,0,0-.061-.361.818.818,0,0,0-.173-.285.758.758,0,0,0-.273-.186.94.94,0,0,0-.36-.066h-3.277a2.535,2.535,0,0,1-.745-.123,2.246,2.246,0,0,1-.743-.4,2.188,2.188,0,0,1-.57-.718,2.7,2.7,0,0,1,0-2.168,2.189,2.189,0,0,1,1.312-1.118,2.555,2.555,0,0,1,.745-.123h4.85v1.425h-4.85a.819.819,0,0,0-.633.247.922.922,0,0,0-.227.652.9.9,0,0,0,.227.649.833.833,0,0,0,.633.238h3.288a2.474,2.474,0,0,1,.487.063,2.423,2.423,0,0,1,.513.178,2.5,2.5,0,0,1,.486.3,2.044,2.044,0,0,1,.408.441,2.149,2.149,0,0,1,.282.591A2.542,2.542,0,0,1,373.021,1029.78Z" transform="translate(-268.341 -1024.125)" fill="#fff"/>
    </g>
  </g>
</svg>
