<svg xmlns="http://www.w3.org/2000/svg" width="28.03" height="31.259" viewBox="0 0 28.03 31.259">
  <path id="notification" d="M31.077,21.929l-2.911-2.911V14.06a10.855,10.855,0,0,0-9.7-10.779V1.125H16.31V3.281a10.941,10.941,0,0,0-9.7,10.779v4.958L3.7,21.929a.981.981,0,0,0-.323.754v3.234a1.013,1.013,0,0,0,1.078,1.078H12a5.389,5.389,0,0,0,10.779,0h7.545A1.013,1.013,0,0,0,31.4,25.917V22.683A.981.981,0,0,0,31.077,21.929Zm-13.69,8.3a3.234,3.234,0,0,1-3.234-3.234h6.467A3.234,3.234,0,0,1,17.387,30.228Zm11.857-5.389H5.531V23.114L8.441,20.2a.981.981,0,0,0,.323-.754V14.06a8.623,8.623,0,0,1,17.246,0v5.389a.981.981,0,0,0,.323.754l2.911,2.911Z" transform="translate(-3.373 -1.125)" fill="#fff"/>
</svg>
