<svg xmlns="http://www.w3.org/2000/svg" width="29.876" height="29.875" viewBox="0 0 29.876 29.875">
  <g id="search" opacity="0.74">
    <path id="Path_12572" data-name="Path 12572" d="M23.383,23.383a1.867,1.867,0,0,1,2.642,0l7.188,7.188a1.868,1.868,0,1,1-2.64,2.642l-7.188-7.188a1.867,1.867,0,0,1,0-2.642Z" transform="translate(-3.885 -3.885)" fill="#fff" fill-rule="evenodd"/>
    <path id="Path_12573" data-name="Path 12573" d="M12.137,22.407a10.27,10.27,0,1,0-10.27-10.27A10.27,10.27,0,0,0,12.137,22.407Zm12.137-10.27A12.137,12.137,0,1,1,12.137,0,12.137,12.137,0,0,1,24.274,12.137Z" fill="#fff" fill-rule="evenodd"/>
  </g>
</svg>
